# xmcd
#
# Track frame offsets:
#	150
#	11485
#	23040
#	33303
#	46504
#	55090
#	66032
#	76033
#	89142
#	100551
#	112442
#	124447
#	136701
#	147989
#	157822
#	169059
#
# Disc length: 2401
#
# Revision: 2
# Processed by: cddbd v1.5.1PL0 Copyright (c) Steve Scherf et al.
# Submitted via: CDex 1.51
# Normalized: r1:TDELIM( - )
#
DISCID=c7095f10
DTITLE=Country - Dolly Parton and Friends
DYEAR=2001
DGENRE=Country
TTITLE0=Dolly Parton - Makin' believe
TTITLE1=Sandy Posey - Single girl
TTITLE2=Dolly Parton - Release me
TTITLE3=Donna Fargo - Daddy
TTITLE4=Sandy Posey - Born a woman
TTITLE5=Dolly Parton - It wasn't god who made honky tonk angels
TTITLE6=Sandy Posey - What a woman won't do
TTITLE7=Dolly Parton - Little blossom
TTITLE8=Donna Fargo - Superman
TTITLE9=Dolly Parton - Letter to heaven
TTITLE10=Sandy Posey - Bring him safely home to me
TTITLE11=Dolly Parton - Two little orphans
TTITLE12=Donna Fargo - Whisful thinking
TTITLE13=Dolly Parton - Girl left alone
TTITLE14=Sandy Posey - I will follow him
TTITLE15=Donna Fargo - All that's keeping me alive
EXTD=YEAR: 2001
EXTT0=Dolly Parton
EXTT1=Sandy Posey
EXTT2=Dolly Parton
EXTT3=Donna Fargo
EXTT4=Sandy Posey
EXTT5=Dolly Parton
EXTT6=Sandy Posey
EXTT7=Dolly Parton
EXTT8=Donna Fargo
EXTT9=Dolly Parton
EXTT10=Sandy Posey
EXTT11=Dolly Parton
EXTT12=Donna Fargo
EXTT13=Dolly Parton
EXTT14=Sandy Posey
EXTT15=Donna Fargo
PLAYORDER=
